#!OML:ASF H:\IndianDance\Patient Classification 1\Patient 1\Session 1\dancer.ASF
:FULLY-SPECIFIED
:DEGREES
2062
root 7.24696 14.8961 13.818 -346.69 -84.416 -9.19888
lowerback 7.86294 1.53547 -6.57559
upperback -7.37584 -0.00183132 -7.25629
thorax -12.5857 0.00644386 -4.2751
lowerneck -21.1494 5.08795 3.60911
upperneck 23.1624 1.81804 13.7144
head 11.0241 2.76914 4.70136
rclavicle -1.55052e-014 -6.36111e-014
rhumerus 0.21564 -10.1197 4.13597
rradius 28.0753
rwrist -14.4205
rhand 32.2731 -18.0728
rfingers 7.12502
rthumb 55.7381 -35.6638
lclavicle -1.55052e-014 -6.36111e-014
lhumerus -2.64337 -33.563 27.3355
lradius 81.6299
lwrist 0.725223
lhand -67.3461 -11.7517
lfingers 7.12502
lthumb -39.1132 373.736
rfemur -37.0246 -18.9841 33.9419
rtibia 47.1671
rfoot -15.522 -15.546
rtoes 23.0042
lfemur -22.4903 25.364 -8.30668
ltibia 64.2973
lfoot 3.57021 -2.68612
ltoes -28.9416
2063
root 7.17123 14.846 13.7753 -345.703 -84.8424 -10.4615
lowerback 8.01739 1.48374 -6.55698
upperback -7.32269 -0.0879928 -7.28658
thorax -12.6221 -0.0392155 -4.30603
lowerneck -21.091 5.06166 3.60475
upperneck 23.2794 1.79317 13.6277
head 11.0578 2.74756 4.66991
rclavicle -4.05521e-014 6.99722e-014
rhumerus 0.245038 -10.2778 4.19673
rradius 27.8263
rwrist -14.0618
rhand 32.0775 -18.1747
rfingers 7.12502
rthumb 55.5644 -35.8971
lclavicle -4.05521e-014 6.99722e-014
lhumerus -2.00253 -33.2633 27.1379
lradius 80.2989
lwrist 0.526916
lhand -67.057 -14.0959
lfingers 7.12502
lthumb -38.8406 371.47
rfemur -36.3799 -18.2814 33.7756
rtibia 47.7508
rfoot -16.6009 -14.9845
rtoes 22.9141
lfemur -22.8828 25.5439 -7.52591
ltibia 65.8877
lfoot 5.61758 -3.31136
ltoes -25.8478
2064
root 7.09667 14.8091 13.7291 -344.207 -85.2408 -12.2485
lowerback 8.24947 1.40427 -6.50891
upperback -7.27522 -0.212135 -7.28753
thorax -12.7133 -0.102862 -4.31682
lowerneck -20.9176 5.07217 3.486
upperneck 23.2998 1.85324 13.6497
head 11.0232 2.76077 4.69932
rclavicle -2.22639e-014 5.725e-014
rhumerus 0.325133 -10.4516 4.24658
rradius 27.6379
rwrist -13.7095
rhand 31.8444 -18.2075
rfingers 7.12502
rthumb 55.3571 -36.0847
lclavicle -2.22639e-014 5.725e-014
lhumerus -1.48043 -32.9334 27.0284
lradius 79.0162
lwrist 0.41353
lhand -67.2804 -12.4691
lfingers 7.12502
lthumb -39.0513 373.036
rfemur -35.7571 -17.9206 33.831
rtibia 48.1827
rfoot -17.2115 -14.1634
rtoes 23.8116
lfemur -23.2484 25.6254 -6.68222
ltibia 67.3991
lfoot 7.09835 -3.98677
ltoes -24.9373
2065
root 7.02541 14.7822 13.6824 -343.839 -85.703 -12.856
lowerback 8.50168 1.36962 -6.55981
upperback -7.25093 -0.305042 -7.33739
thorax -12.847 -0.147726 -4.33539
lowerneck -20.8998 5.03932 3.29133
upperneck 23.3466 1.81748 13.8187
head 11.0338 2.74651 4.79087
rclavicle -1.35174e-014 2.54444e-014
rhumerus 0.359151 -10.9562 4.25293
rradius 27.4267
rwrist -12.9916
rhand 31.5501 -18.1929
rfingers 7.12502
rthumb 55.0949 -36.2627
lclavicle -1.35174e-014 2.54444e-014
lhumerus -0.876898 -32.6057 26.9997
lradius 77.7594
lwrist 0.349816
lhand -66.918 -14.1332
lfingers 7.12502
lthumb -38.7095 371.469
rfemur -35.3529 -17.727 33.8638
rtibia 48.603
rfoot -17.7045 -13.9266
rtoes 24.2563
lfemur -23.6167 25.6455 -6.0044
ltibia 68.8685
lfoot 8.25318 -4.63808
ltoes -24.018
2066
root 6.95247 14.7538 13.6359 -342.157 -86.0496 -14.896
lowerback 8.85651 1.31166 -6.51432
upperback -7.17425 -0.409629 -7.33672
thorax -12.9803 -0.200793 -4.34877
lowerneck -20.9038 4.99785 3.13753
upperneck 23.4688 1.76842 13.8996
head 11.079 2.72238 4.84653
rclavicle -3.18055e-015 -3.81667e-014
rhumerus 0.363041 -11.5165 4.28265
rradius 27.2965
rwrist -12.2244
rhand 31.2014 -18.1094
rfingers 7.12502
rthumb 54.7837 -36.4034
lclavicle -3.18055e-015 -3.81667e-014
lhumerus -0.259965 -32.2058 27.0629
lradius 76.5138
lwrist 0.216074
lhand -67.2297 -15.4265
lfingers 7.12502
lthumb -39.0034 370.093
rfemur -34.9115 -17.6161 33.9967
rtibia 49.0327
rfoot -18.0779 -14.0917
rtoes 24.0551
lfemur -23.9546 25.603 -5.1392
ltibia 70.3043
lfoot 8.95351 -5.6518
ltoes -23.9395
2067
root 6.88623 14.7215 13.5902 -338.273 -86.4366 -19.0408
lowerback 9.18732 1.27997 -6.3941
upperback -7.13529 -0.462657 -7.30395
thorax -13.1398 -0.23342 -4.37946
lowerneck -20.8957 4.87497 2.81083
upperneck 23.4944 1.631 14.1393
head 11.0876 2.65736 4.97104
rclavicle -1.51076e-014 6.36111e-014
rhumerus 0.358063 -12.2825 4.30123
rradius 27.1397
rwrist -11.2796
rhand 30.8762 -17.8562
rfingers 7.12502
rthumb 54.4929 -36.3554
lclavicle -1.51076e-014 6.36111e-014
lhumerus 0.261462 -31.7738 27.183
lradius 75.447
lwrist 0.0893101
lhand -67.3528 -16.8413
lfingers 7.12502
lthumb -39.1195 368.644
rfemur -34.59 -17.3555 34.253
rtibia 49.5055
rfoot -18.4451 -14.1874
rtoes 24.2227
lfemur -24.4098 25.5678 -4.24715
ltibia 71.8339
lfoot 9.40937 -6.6543
ltoes -23.5055
2068
root 6.82129 14.6849 13.546 -335.676 -86.7024 -21.8652
lowerback 9.45489 1.22301 -6.35641
upperback -7.04972 -0.555775 -7.3103
thorax -13.2084 -0.280716 -4.39323
lowerneck -20.9464 4.76587 2.66865
upperneck 23.4827 1.47919 14.2709
head 11.1014 2.59008 5.02313
rclavicle -3.57812e-015 -9.54166e-015
rhumerus 0.165514 -12.5805 4.51378
rradius 27.1153
rwrist -10.8838
rhand 30.4103 -18.1881
rfingers 7.12502
rthumb 54.0754 -36.9751
lclavicle -3.57812e-015 -9.54166e-015
lhumerus 0.934645 -31.2401 27.3
lradius 74.353
lwrist -0.203317
lhand -67.5732 -17.161
lfingers 7.12502
lthumb -39.3271 368.264
rfemur -34.2748 -17.1701 34.3874
rtibia 50.0078
rfoot -19.0005 -14.1113
rtoes 24.4301
lfemur -24.9637 25.4072 -3.52417
ltibia 73.3866
lfoot 9.16338 -7.56048
ltoes -23.4966
2069
root 6.75774 14.644 13.5071 -331.88 -87.044 -25.8294
lowerback 9.67724 1.1765 -6.30954
upperback -6.99981 -0.632042 -7.31033
thorax -13.2904 -0.320902 -4.40882
lowerneck -21.0014 4.67699 2.4176
upperneck 23.4834 1.35618 14.5281
head 11.1161 2.54153 5.14606
rclavicle 2.74323e-014 -5.40694e-014
rhumerus 0.0351245 -12.882 4.6729
rradius 27.0896
rwrist -10.4459
rhand 30.0734 -17.944
rfingers 7.12502
rthumb 53.773 -36.9343
lclavicle 2.74323e-014 -5.40694e-014
lhumerus 1.52037 -30.7243 27.4407
lradius 73.2658
lwrist -0.878725
lhand -67.6652 -17.63
lfingers 7.12502
lthumb -39.4139 367.77
rfemur -34.0342 -16.9163 34.5186
rtibia 50.572
rfoot -19.5551 -13.9817
rtoes 24.6054
lfemur -25.5712 25.3019 -2.89951
ltibia 74.9191
lfoot 8.05291 -8.1316
ltoes -24.3152
2070
root 6.69489 14.6036 13.4715 -324.067 -87.3422 -33.7133
lowerback 9.72127 1.13088 -6.13777
upperback -6.94167 -0.659757 -7.28789
thorax -13.2477 -0.346919 -4.47131
lowerneck -21.044 4.60132 2.21522
upperneck 23.3951 1.25463 14.7646
head 11.0953 2.50149 5.25029
rclavicle -3.61788e-014 7.95139e-014
rhumerus -0.136798 -12.9052 4.89812
rradius 27.0956
rwrist -10.2657
rhand 29.7903 -17.5291
rfingers 7.12502
rthumb 53.5184 -36.6877
lclavicle -3.61788e-014 7.95139e-014
lhumerus 2.03335 -30.1302 27.5544
lradius 72.3376
lwrist -1.58247
lhand -68.0473 -19.2069
lfingers 7.12502
lthumb -39.7737 366.087
rfemur -33.9163 -16.6117 34.8148
rtibia 51.1591
rfoot -19.9655 -13.8913
rtoes 24.305
lfemur -26.3689 25.3442 -2.29697
ltibia 76.3022
lfoot 6.46775 -8.43756
ltoes -24.6773
2071
root 6.63435 14.5643 13.4349 -315.48 -87.6454 -42.2936
lowerback 9.7539 1.06775 -6.064
upperback -6.93793 -0.739164 -7.2891
thorax -13.2661 -0.392029 -4.49804
lowerneck -21.0716 4.58645 2.08441
upperneck 23.3592 1.2033 15.014
head 11.0897 2.49292 5.35776
rclavicle -3.57812e-014 1.20861e-013
rhumerus -0.294294 -12.6788 5.07797
rradius 27.1483
rwrist -10.2687
rhand 29.4892 -17.4376
rfingers 7.12502
rthumb 53.2472 -36.7722
lclavicle -3.57812e-014 1.20861e-013
lhumerus 2.44191 -29.5395 27.63
lradius 71.4848
lwrist -2.35874
lhand -68.4388 -19.7294
lfingers 7.12502
lthumb -40.1421 365.454
rfemur -33.9101 -16.2587 35.0568
rtibia 51.752
rfoot -20.4858 -13.7636
rtoes 24.5824
lfemur -27.1896 25.403 -1.88288
ltibia 77.4314
lfoot 4.35427 -8.30316
ltoes -24.7325
